<?xml version="1.0" encoding="UTF-8" standalone="no"?>
<!-- Created with Inkscape (http://www.inkscape.org/) -->

<svg
   xmlns:dc="http://purl.org/dc/elements/1.1/"
   xmlns:cc="http://creativecommons.org/ns#"
   xmlns:rdf="http://www.w3.org/1999/02/22-rdf-syntax-ns#"
   xmlns:svg="http://www.w3.org/2000/svg"
   xmlns="http://www.w3.org/2000/svg"
   xmlns:sodipodi="http://sodipodi.sourceforge.net/DTD/sodipodi-0.dtd"
   xmlns:inkscape="http://www.inkscape.org/namespaces/inkscape"
   id="svg3773"
   version="1.1"
   inkscape:version="0.48.5 r10040"
   width="400"
   height="400"
   sodipodi:docname="nih_icon.svg">
  <metadata
     id="metadata3779">
    <rdf:RDF>
      <cc:Work
         rdf:about="">
        <dc:format>image/svg+xml</dc:format>
        <dc:type
           rdf:resource="http://purl.org/dc/dcmitype/StillImage" />
        <dc:title></dc:title>
      </cc:Work>
    </rdf:RDF>
  </metadata>
  <defs
     id="defs3777" />
  <sodipodi:namedview
     pagecolor="#ffffff"
     bordercolor="#666666"
     borderopacity="1"
     objecttolerance="10"
     gridtolerance="10"
     guidetolerance="10"
     inkscape:pageopacity="0"
     inkscape:pageshadow="2"
     inkscape:window-width="1440"
     inkscape:window-height="837"
     id="namedview3775"
     showgrid="false"
     inkscape:zoom="1"
     inkscape:cx="513.27826"
     inkscape:cy="214.01302"
     inkscape:window-x="-9"
     inkscape:window-y="-9"
     inkscape:window-maximized="1"
     inkscape:current-layer="g3785" />
  <g
     id="g3785"
     transform="translate(3.5954581,-14.981078)">
    <path
       style="fill:#cfcfd1"
       d="M 15.137077,325.63086 C 10.224722,323.85315 4.2772072,318.47714 1.9933681,313.75014 0.03902466,309.70511 0,307.45494 0,198.81217 0,125.60406 0.33934952,88 1,88 1.55,88 2,87.022862 2,85.828583 2,84.569688 3.8385635,81.895512 6.3750032,79.465176 14.719297,71.469936 4.6462854,71.998325 148.42814,72.013655 c 70.43952,0.0075 129.02632,0.269816 130.19288,0.582903 1.49366,0.400873 5.00819,5.794923 11.88201,18.236345 33.60509,60.824247 58.68803,106.501407 59.16215,107.736957 0.30235,0.7879 -2.48626,6.9445 -6.1969,13.68134 -9.04984,16.43042 -41.48669,75.12239 -53.18109,96.22708 -5.17434,9.33806 -9.94324,17.31867 -10.59754,17.73469 C 279.03534,326.62899 220,326.94203 148.5,326.90861 49.018282,326.86211 17.710534,326.56215 15.137077,325.63086 z M 56.015313,214.75 c 0.0091,-23.22772 0.405652,-39.86232 0.971533,-40.75 0.710794,-1.115 1.382812,-1.23421 2.618285,-0.46444 0.914135,0.56956 12.689225,18.92312 26.166867,40.7857 l 24.504802,39.75013 9.1116,-0.2857 9.1116,-0.28569 0,-54 0,-54 -7.5,0 -7.5,0 -0.26122,40.75 c -0.21574,33.65638 -0.49906,40.75 -1.62755,40.75 -0.75149,0 -1.90336,-0.64707 -2.55972,-1.43794 -0.65636,-0.79086 -12.144282,-19.12836 -25.528713,-40.75 L 59.187467,145.5 l -8.843733,0 -8.843734,0 -0.258612,54.25 -0.258613,54.25 7.508613,0 L 56,254 56.01531,214.75 z m 111.743297,-15 -0.25861,-54.25 -7.75,-0.29206 -7.75,-0.29207 0,54.54207 0,54.54206 8.00861,0 8.00861,0 -0.25861,-54.25 z m 39.47392,29.5 0.26747,-24.75 26,-0.26764 c 23.55662,-0.24248 26.11747,-0.10705 27.25,1.44113 0.91538,1.25133 1.25,7.94855 1.25,25.01764 L 262,254 l 8.00861,0 8.00861,0 -0.25861,-54.25 -0.25861,-54.25 -7.75,-0.29206 -7.75,-0.29207 0,20.85094 c 0,15.10274 -0.3446,21.322 -1.25,22.5597 -1.13253,1.54818 -3.69338,1.68361 -27.25,1.44113 l -26,-0.26764 -0.5,-22 -0.5,-22 -7.75,-0.29206 -7.75,-0.29207 0,54.54207 0,54.54206 7.98253,0 7.98253,0 0.26747,-24.75 z m 88.91556,96.42843 c -1.14011,-1.37374 0.34394,-4.16807 47.42713,-89.30121 C 354.25885,217.0597 363,200.51001 363,199.60015 c 0,-0.90987 -14.93007,-28.73454 -33.17793,-61.8326 -18.24786,-33.09807 -33.37136,-61.190139 -33.60777,-62.426828 -0.58269,-3.048157 2.31196,-3.677045 14.56283,-3.163905 11.70056,0.49009 18.8062,3.294271 25.31589,9.990701 2.98703,3.072713 12.52709,19.463112 32.80933,56.368392 C 396.67148,189.06425 400,195.58951 400,199.5 c 0,4.62084 0.6541,3.37091 -45.48059,86.90974 -8.17356,14.80036 -16.16855,28.39894 -17.76665,30.21906 -1.59809,1.82013 -6.08169,4.89825 -9.96355,6.84026 -6.82294,3.41338 -7.43224,3.53094 -18.30112,3.53094 -8.09934,0 -11.54989,-0.36954 -12.34,-1.32157 z"
       id="path3799"
       inkscape:connector-curvature="0" />
    <path
       style="fill:#a7b5c6"
       d="M 13.104761,323.36491 C 7.9877621,320.81501 2,314.33646 2,311.34996 2,310.60748 1.55,310 1,310 0.33943207,310 0,272.89594 0,200.68783 0,93.916137 0.04585946,91.280741 1.9732492,87.291503 4.4287198,82.209264 8.6981827,77.871297 13.679552,75.397371 c 3.684035,-1.829624 8.463612,-1.906817 133.859428,-2.161919 103.62147,-0.210805 130.37206,-0.0077 131.6786,1 C 280.62477,75.320734 349,198.11618 349,199.55807 349,200.28008 281.02521,323.1988 279.76811,324.75 278.9671,325.73841 251.51193,326 148.5739,326 l -130.181211,0 -5.287928,-2.63509 z M 57.761474,214.75 C 57.91509,191.3969 58.402627,175 58.94338,175 c 1.333529,0 2.574639,1.91422 26.582917,41 11.993149,19.525 22.489603,36.30279 23.325443,37.28397 1.29751,1.52312 2.91824,1.74245 11.08399,1.5 L 129.5,254.5 l 0,-55 0,-55 -8.5,0 -8.5,0 -0.26134,40.25 c -0.20263,31.20724 -0.53963,40.24617 -1.5,40.23297 C 110.0574,224.97361 98.925,207.79644 86,186.81149 73.075,165.82654 61.667029,147.59291 60.648954,146.29233 c -1.739896,-2.22271 -2.400415,-2.34752 -11,-2.07852 L 40.5,144.5 l -0.259856,54 c -0.14292,29.7 -0.03752,54.58081 0.234233,55.2907 0.361452,0.94421 2.712994,1.21266 8.759855,1 L 57.5,254.5 57.761474,214.75 z M 168.5,199.5 l 0,-55 -8.5,0 -8.5,0 -0.25848,55.28906 -0.25849,55.28905 8.75849,-0.28905 L 168.5,254.5 l 0,-55 z m 39.73253,30.75 0.26747,-24.75 25.62902,-0.26664 25.62902,-0.26663 0.60732,2.26663 c 0.33403,1.24665 0.61348,12.52166 0.62099,25.05557 l 0.0136,22.78894 8.75,-0.28894 8.75,-0.28893 0,-55 0,-55 -8.5,0 -8.5,0 -0.54929,22 c -0.30211,12.1 -0.63961,22.1201 -0.75,22.26688 -0.11039,0.14679 -11.78821,0.14679 -25.95071,0 L 208.5,188.5 l -0.5,-22 -0.5,-22 -8.5,0 -8.5,0 -0.25847,55.25 -0.25846,55.25 8.99099,0 8.991,0 0.26747,-24.75 z M 297,324.33962 c 0,-0.91321 5.2347,-11.15071 11.63267,-22.75 6.39798,-11.59929 21.47298,-38.90285 33.5,-60.67458 C 354.1597,219.14331 364,200.49697 364,199.47872 c 0,-1.01825 -2.41403,-6.15502 -5.36451,-11.41504 -28.95134,-51.61357 -61.72778,-112.380789 -61.26545,-113.585596 0.94456,-2.4615 19.06169,-2.036778 26.14356,0.612887 C 335.00501,79.390459 336.83286,81.999455 367.58751,138 399.2006,195.56366 400,197.08674 400,199.75446 c 0,2.40727 0.0166,2.376 -33.26634,62.74554 -17.7762,32.243 -28.42003,50.49321 -31.12416,53.36639 -2.26023,2.40151 -6.8095,5.66365 -10.1095,7.24921 -5.51644,2.65049 -6.90667,2.88289 -17.25,2.88361 -9.81661,6.9e-4 -11.25,-0.21076 -11.25,-1.65959 z"
       id="path3797"
       inkscape:connector-curvature="0" />
    <path
       style="fill:#9b9c9f"
       d="M 13.491423,323.13502 C 8.9385454,321.06669 3.3326513,315.17357 2.406041,311.48166 2.0634696,310.11675 1.3819676,309 0.89159197,309 0.3748976,309 0,262.95732 0,199.5 0,127.16667 0.33942161,90 1,90 1.55,90 2,89.392517 2,88.650038 2,85.758959 8.1400087,78.962744 12.957386,76.521594 L 17.933513,74 148.34431,74 c 103.11055,0 130.62724,0.261676 131.44473,1.25 C 281.92041,77.826795 348,198.24176 348,199.54891 c 0,1.28783 -66.05548,121.53711 -68.22629,124.20109 -0.80561,0.98863 -28.33261,1.24541 -131.64615,1.22804 C 23.939301,324.95716 17.302397,324.86631 13.491423,323.13502 z M 57.761474,215.75 c 0.20266,-30.80889 0.540061,-39.74564 1.5,-39.73063 0.681189,0.0107 10.688526,15.40208 22.238526,34.20316 11.55,18.80108 22.68821,36.80865 24.75158,40.01682 l 3.75159,5.83304 9.74841,-0.2862 L 129.5,255.5 l 0,-55.5 0,-55.5 -8.73849,-0.28877 -8.73849,-0.28876 -0.26151,39.70565 c -0.16703,25.36031 -0.6228,39.82028 -1.26151,40.0229 -0.55,0.17448 -12.046402,-17.56312 -25.54756,-39.41689 L 60.40488,144.5 50.20244,144.21502 40,143.93003 l 0,55.36832 c 0,30.45257 0.316717,55.68503 0.703816,56.07213 0.387099,0.3871 4.324599,0.5746 8.75,0.41667 L 57.5,255.5 57.761474,215.75 z m 110.996936,-16.03764 0.25842,-55.78763 -9.25842,0.28763 L 150.5,144.5 150.24019,199 c -0.1429,29.975 -0.0378,55.08013 0.23364,55.78917 0.36302,0.94838 2.81083,1.21273 9.25982,1 L 168.5,255.5 l 0.25841,-55.78764 z m 39.10065,54.95747 c 0.71976,-0.86726 1.19738,-9.65448 1.37244,-25.25 L 209.5,205.5 l 23,-0.28214 c 12.65,-0.15517 24.00465,-0.0361 25.23256,0.26468 2.22598,0.5452 2.23335,0.61977 2.5,25.28214 L 260.5,255.5 l 9,0 9,0 0.25841,-55.78764 0.25842,-55.78763 -9.25842,0.28763 L 260.5,144.5 l -0.5,22 -0.5,22 -25,0 -25,0 -0.54929,-22 c -0.30211,-12.1 -0.63961,-22.12939 -0.75,-22.28753 -0.11039,-0.15814 -4.36321,-0.15814 -9.45071,0 L 189.5,144.5 189.24019,199 c -0.1429,29.975 -0.0445,55.0625 0.21861,55.75 0.68765,1.79664 16.90127,1.72599 18.40026,-0.0802 z m 90.42702,68.3442 C 298.57172,321.92175 313.6992,294.04738 331.90271,261.071 350.10622,228.09461 365,200.41156 365,199.5531 c 0,-0.85845 -14.90234,-28.59813 -33.11631,-61.64372 -18.21397,-33.04559 -33.35435,-60.993178 -33.64529,-62.105752 -0.51303,-1.961806 -0.16996,-2.011474 11.3663,-1.645552 10.80728,0.342799 12.36618,0.636687 17.04337,3.213069 2.83144,1.559667 6.72942,4.476705 8.66218,6.482307 1.99531,2.070503 12.90682,20.718528 25.24633,43.146548 11.95271,21.725 25.71723,46.73098 30.58781,55.56885 4.87059,8.83786 8.85561,16.72524 8.85561,17.52749 0,0.80226 -0.62176,2.34633 -1.38169,3.43129 -0.75993,1.08495 -14.53195,25.82257 -30.60448,54.9725 -17.1543,31.11186 -30.72833,54.59754 -32.86831,56.86849 -2.00504,2.12775 -6.34552,5.16489 -9.64552,6.74922 -5.47609,2.62906 -6.94885,2.88065 -16.86663,2.88137 -10.3489,7.5e-4 -10.84189,-0.0938 -10.34729,-1.98518 z"
       id="path3795"
       inkscape:connector-curvature="0" />
    <path
       style="fill:#6b8cb0"
       d="M 298.28608,323.01403 C 298.57172,321.92175 313.6992,294.04738 331.90271,261.071 350.10622,228.09461 365,200.41156 365,199.5531 c 0,-0.85845 -14.90234,-28.59813 -33.11631,-61.64372 -18.21397,-33.04559 -33.35435,-60.993178 -33.64529,-62.105752 -0.51303,-1.961806 -0.16996,-2.011474 11.3663,-1.645552 10.80728,0.342799 12.36618,0.636687 17.04337,3.213069 2.83144,1.559667 6.72942,4.476705 8.66218,6.482307 1.99531,2.070503 12.90682,20.718528 25.24633,43.146548 11.95271,21.725 25.71723,46.73098 30.58781,55.56885 4.87059,8.83786 8.85561,16.72524 8.85561,17.52749 0,0.80226 -0.62176,2.34633 -1.38169,3.43129 -0.75993,1.08495 -14.53195,25.82257 -30.60448,54.9725 -17.1543,31.11186 -30.72833,54.59754 -32.86831,56.86849 -2.00504,2.12775 -6.34552,5.16489 -9.64552,6.74922 -5.47609,2.62906 -6.94885,2.88065 -16.86663,2.88137 -10.3489,7.5e-4 -10.84189,-0.0938 -10.34729,-1.98518 z M 13.141787,321.84117 C 8.9835029,319.78288 3,313.07548 3,310.47241 3,309.79727 2.325,308.68469 1.5,308 0.18370865,306.90758 0,293.60432 0,199.37756 0,140.3199 0.38165655,92 0.84812566,92 1.3145948,92 2.490288,90.239141 3.4607772,88.086981 4.4312665,85.93482 6.6371099,82.807627 8.3626516,81.137662 15.125941,74.592208 5.7915772,75 148.85367,75 l 129.9179,0 34.25016,62.05393 c 31.57494,57.20703 34.16006,62.25166 33.09674,64.58539 -0.63437,1.3923 -9.53572,17.68053 -19.78078,36.19607 -10.24505,18.51554 -25.13232,45.47711 -33.08282,59.91461 L 278.79942,324 148.14971,323.99921 17.5,323.99842 13.141787,321.84117 z m 45.62003,-104.17056 c 0.195276,-28.96086 0.55726,-38.73092 1.424286,-38.44191 0.639358,0.21312 7.94654,11.39514 16.238183,24.84893 8.291643,13.4538 19.048348,30.88002 23.903794,38.72495 l 8.82807,14.2635 10.67193,-0.28304 L 130.5,256.5 l 0,-56.5 0,-56.5 -9.5,0 -9.5,0 -0.5,38.5 c -0.29473,22.69444 -0.88159,38.5 -1.42949,38.5 -0.51122,0 -11.700674,-17.4375 -24.865446,-38.75 L 60.769115,143 50.584557,143 c -6.587989,0 -10.608324,0.42377 -11.384557,1.2 -1.599154,1.59915 -1.738288,107.92568 -0.145122,110.90254 0.951035,1.77702 1.960063,1.94283 10.25,1.68426 L 58.5,256.5 58.761817,217.67061 z M 169.5,200 l 0,-56.5 -10,0 -10,0 -0.25973,55.5 c -0.14286,30.525 -0.0382,56.07889 0.23259,56.78642 0.36557,0.95524 3.00693,1.21268 10.25973,1 L 169.5,256.5 l 0,-56.5 z m 39.35906,55.66983 c 0.71976,-0.86726 1.19738,-9.65448 1.37244,-25.25 L 210.5,206.5 l 24,0 24,0 0.5,25 0.5,25 10,0 10,0 0,-56.5 0,-56.5 -10,0 -10,0 -0.5,22 -0.5,22 -24.25,0.26778 -24.25,0.26778 -0.0153,-21.26778 c -0.008,-11.69728 -0.38311,-21.84748 -0.83265,-22.55601 -0.59835,-0.94309 -3.47436,-1.21101 -10.73468,-1 L 188.5,143.5 188.22337,198 c -0.15215,29.975 -0.0311,55.5125 0.26905,56.75 0.51759,2.13418 1.02742,2.25 9.90419,2.25 6.56768,0 9.68771,-0.39667 10.46245,-1.33017 z"
       id="path3793"
       inkscape:connector-curvature="0" />
    <path
       style="fill:#52759d"
       d="m 299.48831,323.83014 c -0.30772,-0.80192 1.54302,-5.25427 4.11278,-9.89409 C 348.23546,233.34629 366,200.78836 366,199.57452 366,198.76181 350.925,170.76464 332.5,137.3586 314.075,103.95256 299,76.255769 299,75.810173 c 0,-0.445595 4.6125,-0.809818 10.25,-0.809384 9.23446,7.11e-4 10.84446,0.285898 16.25,2.878437 8.09094,3.880483 11.01242,7.297159 19.76972,23.120774 4.10923,7.425 17.51134,31.725 29.78246,54 12.27112,22.275 22.90439,41.09464 23.62948,41.82143 1.76597,1.7701 1.6665,2.76672 -0.59576,5.96906 -1.05275,1.49023 -15.04087,26.55951 -31.0847,55.70951 -18.00709,32.71705 -30.5733,54.45369 -32.8359,56.79855 -6.06972,6.29038 -12.46709,8.79664 -24.08849,9.43701 -8.22542,0.45325 -10.12961,0.29042 -10.5885,-0.90542 z M 13.141787,321.84117 C 8.9835029,319.78288 3,313.07548 3,310.47241 3,309.79727 2.325,308.68469 1.5,308 0.18370865,306.90758 0,293.60432 0,199.37756 0,140.3199 0.38165655,92 0.84812566,92 1.3145948,92 2.490288,90.239141 3.4607772,88.086981 4.4312665,85.93482 6.6371099,82.807627 8.3626516,81.137662 15.125941,74.592208 5.7915772,75 148.85367,75 l 129.9179,0 34.25016,62.05393 c 31.57494,57.20703 34.16006,62.25166 33.09674,64.58539 -0.63437,1.3923 -9.53572,17.68053 -19.78078,36.19607 -10.24505,18.51554 -25.13232,45.47711 -33.08282,59.91461 L 278.79942,324 148.14971,323.99921 17.5,323.99842 13.141787,321.84117 z m 45.62003,-104.17056 c 0.195276,-28.96086 0.55726,-38.73092 1.424286,-38.44191 0.639358,0.21312 7.94654,11.39514 16.238183,24.84893 8.291643,13.4538 19.048348,30.88002 23.903794,38.72495 l 8.82807,14.2635 10.67193,-0.28304 L 130.5,256.5 l 0,-56.5 0,-56.5 -9.5,0 -9.5,0 -0.5,38.5 c -0.29473,22.69444 -0.88159,38.5 -1.42949,38.5 -0.51122,0 -11.700674,-17.4375 -24.865446,-38.75 L 60.769115,143 50.584557,143 c -6.587989,0 -10.608324,0.42377 -11.384557,1.2 -1.599154,1.59915 -1.738288,107.92568 -0.145122,110.90254 0.951035,1.77702 1.960063,1.94283 10.25,1.68426 L 58.5,256.5 58.761817,217.67061 z M 169.5,200 l 0,-56.5 -10,0 -10,0 -0.25973,55.5 c -0.14286,30.525 -0.0382,56.07889 0.23259,56.78642 0.36557,0.95524 3.00693,1.21268 10.25973,1 L 169.5,256.5 l 0,-56.5 z m 39.35906,55.66983 c 0.71976,-0.86726 1.19738,-9.65448 1.37244,-25.25 L 210.5,206.5 l 24,0 24,0 0.5,25 0.5,25 10,0 10,0 0,-56.5 0,-56.5 -10,0 -10,0 -0.5,22 -0.5,22 -24.25,0.26778 -24.25,0.26778 -0.0153,-21.26778 c -0.008,-11.69728 -0.38311,-21.84748 -0.83265,-22.55601 -0.59835,-0.94309 -3.47436,-1.21101 -10.73468,-1 L 188.5,143.5 188.22337,198 c -0.15215,29.975 -0.0311,55.5125 0.26905,56.75 0.51759,2.13418 1.02742,2.25 9.90419,2.25 6.56768,0 9.68771,-0.39667 10.46245,-1.33017 z"
       id="path3791"
       inkscape:connector-curvature="0" />
    <path
       style="fill:#646569"
       d="M 13.141787,321.84117 C 8.9835029,319.78288 3,313.07548 3,310.47241 3,309.79727 2.325,308.68469 1.5,308 0.18370865,306.90758 0,293.60432 0,199.37756 0,140.3199 0.38165655,92 0.84812566,92 1.3145948,92 2.490288,90.239141 3.4607772,88.086981 4.4312665,85.93482 6.6371099,82.807627 8.3626516,81.137662 15.125941,74.592208 5.7915772,75 148.85367,75 l 129.9179,0 34.25016,62.05393 c 31.57494,57.20703 34.16006,62.25166 33.09674,64.58539 -0.63437,1.3923 -9.53572,17.68053 -19.78078,36.19607 -10.24505,18.51554 -25.13232,45.47711 -33.08282,59.91461 L 278.79942,324 148.14971,323.99921 17.5,323.99842 13.141787,321.84117 z m 45.62003,-104.17056 c 0.195276,-28.96086 0.55726,-38.73092 1.424286,-38.44191 0.639358,0.21312 7.94654,11.39514 16.238183,24.84893 8.291643,13.4538 19.048348,30.88002 23.903794,38.72495 l 8.82807,14.2635 10.67193,-0.28304 L 130.5,256.5 l 0,-56.5 0,-56.5 -9.5,0 -9.5,0 -0.5,38.5 c -0.29473,22.69444 -0.88159,38.5 -1.42949,38.5 -0.51122,0 -11.700674,-17.4375 -24.865446,-38.75 L 60.769115,143 50.584557,143 c -6.587989,0 -10.608324,0.42377 -11.384557,1.2 -1.599154,1.59915 -1.738288,107.92568 -0.145122,110.90254 0.951035,1.77702 1.960063,1.94283 10.25,1.68426 L 58.5,256.5 58.761817,217.67061 z M 169.5,200 l 0,-56.5 -10,0 -10,0 -0.25973,55.5 c -0.14286,30.525 -0.0382,56.07889 0.23259,56.78642 0.36557,0.95524 3.00693,1.21268 10.25973,1 L 169.5,256.5 l 0,-56.5 z m 39.35906,55.66983 c 0.71976,-0.86726 1.19738,-9.65448 1.37244,-25.25 L 210.5,206.5 l 24,0 24,0 0.5,25 0.5,25 10,0 10,0 0,-56.5 0,-56.5 -10,0 -10,0 -0.5,22 -0.5,22 -24.25,0.26778 -24.25,0.26778 -0.0153,-21.26778 c -0.008,-11.69728 -0.38311,-21.84748 -0.83265,-22.55601 -0.59835,-0.94309 -3.47436,-1.21101 -10.73468,-1 L 188.5,143.5 188.22337,198 c -0.15215,29.975 -0.0311,55.5125 0.26905,56.75 0.51759,2.13418 1.02742,2.25 9.90419,2.25 6.56768,0 9.68771,-0.39667 10.46245,-1.33017 z M 300,323.01657 c 0,-0.77667 37.26761,-68.84084 62.62415,-114.37442 2.40672,-4.32182 4.37585,-8.42955 4.37585,-9.1283 0,-0.69875 -2.09097,-5.03772 -4.6466,-9.64215 C 359.79778,185.26726 351.7577,170.7 344.48657,157.5 337.21544,144.3 324.23141,120.73932 315.63317,105.14293 307.03493,89.546546 300,76.609046 300,76.392933 300,76.17682 304.19484,76 309.32186,76 c 19.41063,0 23.11114,3.115651 39.7885,33.5 6.64145,12.1 19.97096,36.4 29.62114,54 9.65018,17.6 18.35681,32.86092 19.34807,33.91316 1.73835,1.84527 1.73035,2.00494 -0.22552,4.5 -1.11531,1.42276 -8.2076,13.83684 -15.76064,27.58684 -7.55305,13.75 -20.64708,37.6 -29.09785,53 -17.15688,31.26533 -20.58587,35.70642 -30.40582,39.38054 C 316.5348,324.14598 300,324.97752 300,323.01657 z"
       id="path3789"
       inkscape:connector-curvature="0" />
    <path
       style="fill:#316195"
       d="m 300,323.01657 c 0,-0.77667 37.26761,-68.84084 62.62415,-114.37442 2.40672,-4.32182 4.37585,-8.42955 4.37585,-9.1283 0,-0.69875 -2.09097,-5.03772 -4.6466,-9.64215 C 359.79778,185.26726 351.7577,170.7 344.48657,157.5 337.21544,144.3 324.23141,120.73932 315.63317,105.14293 307.03493,89.546546 300,76.609046 300,76.392933 300,76.17682 304.19484,76 309.32186,76 c 19.41063,0 23.11114,3.115651 39.7885,33.5 6.64145,12.1 19.97096,36.4 29.62114,54 9.65018,17.6 18.35681,32.86092 19.34807,33.91316 1.73835,1.84527 1.73035,2.00494 -0.22552,4.5 -1.11531,1.42276 -8.2076,13.83684 -15.76064,27.58684 -7.55305,13.75 -20.64708,37.6 -29.09785,53 -17.15688,31.26533 -20.58587,35.70642 -30.40582,39.38054 C 316.5348,324.14598 300,324.97752 300,323.01657 z"
       id="path3787"
       inkscape:connector-curvature="0" />
    <path
       style="fill:#ffffff;fill-opacity:1"
       d="m 44.922488,185.24939 c 0.12188,-29.50845 0.283122,-53.8506 0.358317,-54.09367 0.104489,-0.33776 2.172553,-0.44194 8.772801,-0.44194 l 8.636082,0 5.753253,9.28078 c 27.895678,44.99951 42.950449,68.79452 44.634519,70.54765 1.36343,1.41936 2.38201,1.38346 2.77587,-0.0978 0.49385,-1.85731 0.9801,-22.16669 1.22962,-51.35796 l 0.24253,-28.37266 7.36741,0 7.36741,0 0,53.73338 0,53.73338 -0.7955,0.16334 c -0.43752,0.0898 -4.53432,0.25158 -9.104,0.35946 l -8.3085,0.19612 -13.01617,-21.16296 C 77.885824,180.42164 66.270608,162.25201 63.51506,159.35533 c -1.422993,-1.49588 -2.299419,-1.60607 -2.701365,-0.33965 -0.687845,2.1672 -0.941596,12.1469 -1.121018,44.08816 l -0.201083,35.79728 -7.395352,0 -7.395353,0 0.221599,-53.65173 z"
       id="path3883"
       inkscape:connector-curvature="0"
       transform="translate(-3.5954581,14.981078)" />
    <path
       style="fill:#ffffff;fill-opacity:1"
       d="m 155.74837,184.46869 0,-54.43243 3.62393,0.17295 c 1.99315,0.0951 5.38766,0.26163 7.54334,0.37001 l 3.91942,0.19706 0.23462,32.05372 c 0.12904,17.62955 0.23471,41.95764 0.23483,54.06242 l 2.1e-4,22.0087 -7.77817,0 -7.77818,0 0,-54.43243 z"
       id="path3885"
       inkscape:connector-curvature="0"
       transform="translate(-3.5954581,14.981078)" />
    <path
       style="fill:#ffffff;fill-opacity:1"
       d="m 194.63925,184.47847 0,-54.42264 3.97747,0.16295 c 2.18761,0.0896 5.59344,0.25197 7.56851,0.36076 l 3.59103,0.1978 0.20286,3.9457 c 0.11157,2.17013 0.37494,11.97686 0.58527,21.79273 0.21033,9.81587 0.4652,17.92992 0.56638,18.03122 0.27841,0.27875 47.35073,0.45406 49.88304,0.18578 2.69019,-0.285 3.58603,-0.95255 4.05232,-3.01963 0.2037,-0.90304 0.43067,-10.15417 0.53057,-21.62545 l 0.17458,-20.0473 3.59002,0.17088 c 1.97451,0.094 5.36066,0.26 7.52477,0.36891 l 3.93475,0.19802 0.23339,32.22954 c 0.12837,17.72624 0.26692,42.05396 0.3079,54.06158 l 0.0745,21.83204 -7.86656,-1.2e-4 -7.86656,-1.2e-4 -0.006,-19.35705 c -0.005,-17.22371 -0.30229,-26.55785 -0.90656,-28.46174 -0.10924,-0.34418 -0.70441,-0.90246 -1.32261,-1.24062 -1.03974,-0.56876 -3.03834,-0.61286 -26.66518,-0.58841 -14.04766,0.0145 -25.61704,0.10226 -25.70973,0.19495 -0.0927,0.0927 -0.27901,11.25751 -0.41403,24.8107 l -0.24549,24.64217 -7.89752,0 -7.89752,0 0,-54.42265 z"
       id="path3887"
       inkscape:connector-curvature="0"
       transform="translate(-3.5954581,14.981078)" />
    <path
       style="fill:#ffffff;fill-opacity:1"
       d="m 194.63925,184.46217 0,-54.43894 3.97747,0.17997 c 2.18761,0.099 5.59344,0.26865 7.56851,0.37705 l 3.59103,0.19709 0.20348,3.9457 c 0.11192,2.17013 0.38029,11.98019 0.5964,21.80014 0.2161,9.81994 0.47073,17.93399 0.56583,18.03122 0.0951,0.0972 11.25689,0.22271 24.80395,0.27885 27.08805,0.11225 27.73745,0.0714 28.63393,-1.80241 0.74463,-1.5564 1.09938,-10.28799 1.11204,-27.37115 l 0.0116,-15.63646 3.97747,0.17997 c 2.18761,0.099 5.58903,0.26835 7.55871,0.37638 l 3.58124,0.19643 0.22729,31.16997 c 0.12502,17.14349 0.26355,41.47169 0.30786,54.06267 l 0.0806,22.89269 -7.86656,-1.1e-4 -7.86656,-1.1e-4 -0.0103,-19.0035 c -0.0101,-18.56629 -0.30372,-26.93921 -1.00992,-28.79666 -0.71082,-1.8696 -0.85921,-1.87913 -28.26502,-1.81592 -13.87066,0.032 -25.27795,0.11674 -25.34954,0.18833 -0.0716,0.0716 -0.24314,11.22211 -0.38123,24.77895 l -0.25107,24.6488 -7.89856,0 -7.89856,0 0,-54.43895 z"
       id="path3889"
       inkscape:connector-curvature="0"
       transform="translate(-3.5954581,14.981078)" />
    <path
       style="fill:#ffffff;fill-opacity:1"
       d="m 194.63925,184.4349 0,-54.46621 3.97747,0.20564 c 2.18761,0.1131 5.59391,0.29508 7.56955,0.40439 l 3.59207,0.19876 0.2023,3.59208 c 0.11127,1.97563 0.38431,11.78567 0.60676,21.80007 0.22245,10.0144 0.47316,18.2835 0.55714,18.37579 0.084,0.0923 11.55882,0.17184 25.49965,0.17678 27.32201,0.01 27.12258,0.0227 27.96693,-1.8304 0.66058,-1.44983 1.07482,-12.20516 1.08392,-28.14326 l 0.008,-14.77985 3.97747,0.20564 c 2.18761,0.1131 5.58906,0.29474 7.55877,0.40366 l 3.58128,0.19802 0.22334,30.10931 c 0.12284,16.56012 0.26135,40.88829 0.3078,54.06261 l 0.0845,23.95328 -7.86656,-4e-5 -7.86656,-5e-5 -0.0111,-17.94284 c -0.0116,-18.69983 -0.35932,-28.30751 -1.08208,-29.89379 -0.83763,-1.83839 -0.92144,-1.84363 -28.20788,-1.76367 -13.87934,0.0407 -25.28136,0.12023 -25.33783,0.17678 -0.0565,0.0566 -0.21932,11.19998 -0.3619,24.76317 l -0.25927,24.66035 -7.9021,0 -7.9021,0 0,-54.46622 z"
       id="path3891"
       inkscape:connector-curvature="0"
       transform="translate(-3.5954581,14.981078)" />
  </g>
  <path
     style="fill:#ffffff;fill-opacity:1"
     d="m 44.896486,214.615 c 0,-13.29396 0.17888,-37.5633 0.39751,-53.93188 l 0.397509,-29.76104 8.492624,0 8.492623,0 6.745324,10.93618 c 24.536261,39.78061 43.087264,69.0411 44.268324,69.8244 1.02575,0.6803 1.55267,0.74102 2.05671,0.23698 0.73928,-0.73928 1.54213,-32.26864 1.61618,-63.4697 l 0.0416,-17.52786 7.19092,0 7.19092,0 0,53.54187 0,53.54187 -5.84262,0.3869 c -3.21344,0.2128 -7.20982,0.3883 -8.88083,0.39001 l -3.03821,0.003 -11.31824,-18.42672 C 87.998102,196.41247 70.307457,168.28033 66.656122,163.03031 c -5.485673,-7.88751 -6.321431,-7.25278 -6.87357,5.22023 -0.221868,5.01208 -0.426085,22.93292 -0.453815,39.82408 l -0.05042,30.7112 -7.190916,0 -7.190917,0 0,-24.17082 z"
     id="path3811"
     inkscape:connector-curvature="0" />
  <path
     style="fill:#ffffff;fill-opacity:1"
     d="m 44.897201,212.26932 c 3.92e-4,-14.58408 0.179198,-38.85342 0.397345,-53.93187 l 0.396632,-27.41537 8.494676,0 8.494677,0 3.801036,6.14224 c 2.090569,3.37823 10.931831,17.60276 19.647248,31.61007 27.024255,43.43303 28.220465,45.1808 29.502685,43.10612 0.82678,-1.33776 1.15418,-10.96714 1.55221,-45.6529 l 0.404,-35.20553 7.09951,0 7.09951,0 0,53.54252 0,53.54251 -5.48525,0.38936 c -3.01689,0.21415 -7.02292,0.38935 -8.90229,0.38935 l -3.41703,0 -5.58914,-9.13845 C 94.81284,207.44325 69.204168,166.64352 66.315705,162.6098 c -3.525373,-4.92315 -5.098223,-5.61239 -5.988985,-2.62444 -0.294764,0.98876 -0.688904,19.12335 -0.875866,40.2991 l -0.339931,38.50136 -7.107218,0 -7.107219,0 7.13e-4,-26.5165 2e-6,0 z"
     id="path3813"
     inkscape:connector-curvature="0" />
  <path
     style="fill:#ffffff;fill-opacity:1"
     d="m 44.896486,210.12043 c 0,-15.76597 0.178723,-40.03532 0.397162,-53.93188 l 0.397161,-25.26647 8.54261,0 8.54261,0 1.362392,2.24716 c 4.657927,7.6829 42.275689,67.87923 45.057979,72.10225 3.98669,6.05106 5.65031,7.77883 6.36954,6.6151 0.81734,-1.32249 1.20612,-12.73561 1.61997,-47.55671 l 0.39705,-33.4078 7.10188,0 7.10189,0 0,53.54343 0,53.54344 -4.94376,0.38484 c -2.71906,0.21167 -6.71591,0.38647 -8.88187,0.38844 l -3.93812,0.004 -15.491241,-25.01839 c -28.76451,-46.45476 -34.97029,-55.87942 -36.794501,-55.87942 -1.583186,0 -1.892615,5.8295 -2.266306,42.69607 l -0.387225,38.20174 -7.09361,0 -7.093611,0 0,-28.66539 z"
     id="path3815"
     inkscape:connector-curvature="0" />
  <path
     style="fill:#ffffff;fill-opacity:1"
     d="m 44.896486,206.52469 c 0,-17.74362 0.178552,-42.01296 0.396781,-53.93187 l 0.396781,-21.67074 8.514169,0 8.514169,0 23.101956,37.00326 c 12.706076,20.35179 24.142728,38.48434 25.414798,40.29456 2.46366,3.50593 3.95185,4.33132 4.65306,2.58073 0.45421,-1.13391 1.43447,-45.41769 1.48631,-67.14464 l 0.0304,-12.73391 7.19092,0 7.19092,0 0,53.54432 0,53.54432 -4.58474,0.38755 c -2.5216,0.21316 -6.53173,0.38755 -8.9114,0.38755 l -4.32666,0 L 99.990225,216.1644 C 70.480099,168.39175 62.703882,156.69571 61.340458,158.03208 c -1.109763,1.08775 -1.419322,8.45547 -1.825615,43.45087 l -0.433082,37.30287 -7.092637,0 -7.092638,0 0,-32.26113 z"
     id="path3819"
     inkscape:connector-curvature="0" />
</svg>
